<svg width="25" height="25" viewBox="0 0 25 25" fill="none" xmlns="http://www.w3.org/2000/svg">
<path d="M19.2556 7.61942L7.96268 18.9124H15.5486C16.1016 18.9124 16.5486 19.3604 16.5486 19.9124C16.5486 20.4644 16.1016 20.9124 15.5486 20.9124H5.54861C5.41861 20.9124 5.28853 20.8855 5.16653 20.8355C4.92153 20.7345 4.72752 20.5395 4.62552 20.2945C4.57452 20.1725 4.54861 20.0424 4.54861 19.9124V9.91239C4.54861 9.36039 4.99561 8.91239 5.54861 8.91239C6.10161 8.91239 6.54861 9.36039 6.54861 9.91239V17.4983L17.8416 6.20536C18.2326 5.81436 18.8646 5.81436 19.2556 6.20536C19.6466 6.59636 19.6466 7.22842 19.2556 7.61942Z" fill="white"/>
</svg>
