<svg width="133" height="27" viewBox="0 0 133 27" fill="none" xmlns="http://www.w3.org/2000/svg">
<g clip-path="url(#clip0_2090_87917)">
<path fill-rule="evenodd" clip-rule="evenodd" d="M128.986 23.4857C127.141 25.1041 124.735 26.0835 122.104 26.0835C116.299 26.0835 111.586 21.3129 111.586 15.4372C111.586 9.56136 116.299 4.79102 122.104 4.79102C124.735 4.79102 127.141 5.77038 128.986 7.38869V5.25412H132.904V25.6204H128.986V23.4857ZM122.368 8.62678C126.115 8.62678 129.157 11.6785 129.157 15.4372C129.157 19.1961 126.115 22.2478 122.368 22.2478C118.622 22.2478 115.58 19.1961 115.58 15.4372C115.58 11.6785 118.622 8.62678 122.368 8.62678Z" fill="url(#paint0_linear_2090_87917)"/>
<path fill-rule="evenodd" clip-rule="evenodd" d="M104.849 23.4857C103.004 25.1041 100.598 26.0835 97.9674 26.0835C92.1621 26.0835 87.4492 21.3129 87.4492 15.4372C87.4492 9.56136 92.1621 4.79102 97.9674 4.79102C100.598 4.79102 103.004 5.77038 104.849 7.38869V5.25412H108.767V25.6204H104.849V23.4857ZM98.2313 8.62678C101.978 8.62678 105.02 11.6785 105.02 15.4372C105.02 19.1961 101.978 22.2478 98.2313 22.2478C94.4846 22.2478 91.4428 19.1961 91.4428 15.4372C91.4428 11.6785 94.4846 8.62678 98.2313 8.62678Z" fill="url(#paint1_linear_2090_87917)"/>
<path fill-rule="evenodd" clip-rule="evenodd" d="M69.8045 7.00824V0.171875H65.8867V25.6197H69.8045V13.62C69.8045 11.5219 71.5194 8.62619 75.8 8.62619C79.0618 8.62619 80.7627 11.2515 80.7627 13.6975V25.6197H84.6604V13.1665C84.6604 9.35128 82.0675 4.79045 76.2011 4.79045C73.3029 4.79045 71.2746 5.68557 69.8045 7.00824Z" fill="url(#paint2_linear_2090_87917)"/>
<path fill-rule="evenodd" clip-rule="evenodd" d="M59.8894 10.6803L62.9501 8.62678C62.9501 8.62678 60.4458 4.79102 54.2581 4.79102C48.9399 4.79102 45.7593 7.39894 45.7593 10.6803C45.7593 19.1011 59.2 16.1557 59.2 20.0096C59.2 21.6943 57.594 22.4744 54.3446 22.4186C49.6169 22.3373 47.6592 19.1251 47.6592 19.1251L44.5332 21.2715C44.5332 21.2715 47.443 26.0835 54.3446 26.0835C59.2879 26.0835 63.2709 24.244 63.2709 20.0096C63.2709 11.9147 49.9173 14.9898 49.9173 10.6803C49.9173 9.07141 51.7937 8.45588 54.3446 8.45588C58.3024 8.45588 59.8894 10.6803 59.8894 10.6803Z" fill="url(#paint3_linear_2090_87917)"/>
<path fill-rule="evenodd" clip-rule="evenodd" d="M38.3906 23.4857C36.5451 25.1041 34.1389 26.0835 31.5084 26.0835C25.7032 26.0835 20.9902 21.3129 20.9902 15.4372C20.9902 9.56136 25.7032 4.79102 31.5084 4.79102C34.1389 4.79102 36.5451 5.77038 38.3906 7.38869V5.25412H42.3084V25.6239H38.3906V23.4857ZM31.7724 8.62678C35.5192 8.62678 38.5611 11.6785 38.5611 15.4372C38.5611 19.1961 35.5192 22.2478 31.7724 22.2478C28.0257 22.2478 24.9838 19.1961 24.9838 15.4372C24.9838 11.6785 28.0257 8.62678 31.7724 8.62678Z" fill="url(#paint4_linear_2090_87917)"/>
<path fill-rule="evenodd" clip-rule="evenodd" d="M19.5251 21.2141C17.6337 24.1435 14.3468 26.0835 10.6118 26.0835C4.75496 26.0835 0 21.3129 0 15.4372C0 9.56136 4.75496 4.79102 10.6118 4.79102C14.3468 4.79102 17.6337 6.73094 19.5251 9.66047L16.345 11.7906C15.1401 9.8893 13.0218 8.62678 10.6118 8.62678C6.86526 8.62678 3.99373 11.6785 3.99373 15.4372C3.99373 19.1961 6.86526 22.2478 10.6118 22.2478C13.0218 22.2478 15.1401 20.9852 16.345 19.0837L19.5251 21.2141Z" fill="url(#paint5_linear_2090_87917)"/>
</g>
<defs>
<linearGradient id="paint0_linear_2090_87917" x1="122.245" y1="4.79102" x2="122.245" y2="26.0835" gradientUnits="userSpaceOnUse">
<stop stop-color="#233EC2"/>
<stop offset="1" stop-color="#051F9B"/>
</linearGradient>
<linearGradient id="paint1_linear_2090_87917" x1="98.1081" y1="4.79102" x2="98.1081" y2="26.0835" gradientUnits="userSpaceOnUse">
<stop stop-color="#233EC2"/>
<stop offset="1" stop-color="#051F9B"/>
</linearGradient>
<linearGradient id="paint2_linear_2090_87917" x1="75.2735" y1="0.171875" x2="75.2735" y2="25.6197" gradientUnits="userSpaceOnUse">
<stop stop-color="#233EC2"/>
<stop offset="1" stop-color="#051F9B"/>
</linearGradient>
<linearGradient id="paint3_linear_2090_87917" x1="53.902" y1="4.79102" x2="53.902" y2="26.0835" gradientUnits="userSpaceOnUse">
<stop stop-color="#233EC2"/>
<stop offset="1" stop-color="#051F9B"/>
</linearGradient>
<linearGradient id="paint4_linear_2090_87917" x1="31.6493" y1="4.79102" x2="31.6493" y2="26.0835" gradientUnits="userSpaceOnUse">
<stop stop-color="#233EC2"/>
<stop offset="1" stop-color="#051F9B"/>
</linearGradient>
<linearGradient id="paint5_linear_2090_87917" x1="9.76257" y1="4.79102" x2="9.76257" y2="26.0835" gradientUnits="userSpaceOnUse">
<stop stop-color="#233EC2"/>
<stop offset="1" stop-color="#051F9B"/>
</linearGradient>
<clipPath id="clip0_2090_87917">
<rect width="132.903" height="26.2886" fill="white"/>
</clipPath>
</defs>
</svg>
