<svg width="178" height="177" viewBox="0 0 178 177" fill="none" xmlns="http://www.w3.org/2000/svg">
<rect x="0.928223" y="0.580566" width="176.298" height="176.298" rx="37" fill="#F7F8FD"/>
<circle cx="88.5261" cy="66.7322" r="15.7493" fill="#3350DB"/>
<path d="M57.9561 106.73C57.9561 97.1911 65.6886 89.4585 75.2272 89.4585H101.076C110.614 89.4585 118.347 97.1911 118.347 106.73V119.234H57.9561V106.73Z" fill="#3350DB"/>
<path d="M64.5226 47.3911H55.2821C50.8307 47.3911 47.2222 50.9996 47.2222 55.451V63.9922" stroke="#3350DB" stroke-width="6.90847" stroke-linecap="round"/>
<path d="M113.631 47.3911H122.871C127.323 47.3911 130.931 50.9996 130.931 55.451V63.9922" stroke="#3350DB" stroke-width="6.90847" stroke-linecap="round"/>
<path d="M64.5226 130.068H55.2821C50.8307 130.068 47.2222 126.459 47.2222 122.008V113.467" stroke="#3350DB" stroke-width="6.90847" stroke-linecap="round"/>
<path d="M113.631 130.068H122.871C127.323 130.068 130.931 126.459 130.931 122.008V113.467" stroke="#3350DB" stroke-width="6.90847" stroke-linecap="round"/>
</svg>
