<svg width="178" height="177" viewBox="0 0 178 177" fill="none" xmlns="http://www.w3.org/2000/svg">
<rect x="0.851074" y="0.580566" width="176.298" height="176.298" rx="37" fill="#F7F8FD"/>
<g clip-path="url(#clip0_1498_93473)">
<path d="M80.7522 43.1198C71.9085 45.4052 67.6357 48.3862 67.6357 51.9634C67.6357 56.8324 71.213 57.528 79.5598 54.3483C86.5155 51.566 95.2598 51.4666 102.414 53.8514C110.065 56.5343 119.207 65.6761 121.89 73.3274C124.275 80.5812 124.076 94.0951 121.195 108.503L119.108 119.235L121.095 121.222C122.586 122.713 123.778 123.11 125.666 122.613C127.653 122.117 128.548 120.924 129.74 116.751C132.125 108.603 133.218 101.448 133.914 90.7166C134.808 75.0166 131.429 64.6824 122.188 54.9445C111.556 43.716 95.4585 39.1451 80.7522 43.1198Z" fill="#3350DB"/>
<path d="M55.3141 62.1987C52.2337 65.6766 49.6501 74.4209 48.7558 84.7551C48.259 90.6177 46.9672 96.9772 45.7748 100.058C43.5887 105.722 44.0856 108.404 47.7622 109.597C53.128 111.286 57.3014 102.641 58.8913 86.7424C59.4875 80.7804 60.7792 74.5203 62.071 71.1418C63.959 66.5709 64.1577 65.0804 63.2634 63.1924C61.7729 60.2114 57.5995 59.7146 55.3141 62.1987Z" fill="#3350DB"/>
<path d="M83.4342 61.7016C73.5968 65.3782 67.6348 74.4206 67.6348 85.7484C67.6348 92.6048 64.5544 104.529 60.7785 111.981C57.1019 119.235 56.9032 121.521 60.0829 123.508C63.6601 125.893 66.0449 124.104 70.0196 116.254C74.6899 107.013 76.4785 100.256 77.5715 89.0276C78.5652 77.6997 80.2544 74.4206 86.7133 71.837C92.2778 69.651 96.65 70.5453 100.823 74.8181C104.798 78.7927 105.692 82.6681 104.798 92.7041C104.003 101.15 104.897 103.138 109.369 103.138C114.039 103.138 114.834 101.051 114.834 88.2326C114.834 77.1035 114.735 76.5073 111.853 71.837C107.68 64.9807 101.42 61.3041 93.2715 60.8073C89.3962 60.5092 85.6203 60.9067 83.4342 61.7016Z" fill="#8596E9"/>
<path d="M87.8063 80.4819C87.2101 81.1775 86.5145 85.3509 86.1171 89.723C85.3221 100.256 82.4405 110.391 77.5715 120.03C72.2057 130.662 72.5038 133.941 78.7639 133.941C82.043 133.941 85.024 129.768 89.6943 118.639C95.1595 106.019 98.3392 83.5623 95.2588 80.4819C93.669 78.892 88.9987 78.9914 87.8063 80.4819Z" fill="#8596E9"/>
<path d="M103.011 108.702C102.116 109.497 101.123 111.385 100.725 112.876C100.427 114.366 98.8372 118.639 97.2474 122.415C93.8689 130.762 93.7695 132.451 96.9493 134.538C99.2347 136.028 99.6322 136.028 101.818 134.538C104.302 132.948 110.066 119.832 111.059 113.472C111.954 108.305 106.588 105.026 103.011 108.702Z" fill="#C2CBF4"/>
</g>
<defs>
<clipPath id="clip0_1498_93473">
<rect width="90.4241" height="94.3988" fill="white" transform="translate(43.7881 41.5303)"/>
</clipPath>
</defs>
</svg>
