<svg width="304" height="460" viewBox="0 0 304 460" fill="none" xmlns="http://www.w3.org/2000/svg">
<g opacity="0.4" filter="url(#filter0_f_2090_87935)">
<path fill-rule="evenodd" clip-rule="evenodd" d="M49.6508 192.938C49.0909 193.445 48.3582 193.753 47.5563 193.753C45.7977 193.753 44.3722 192.274 44.3722 190.451C44.3722 189.657 44.6419 188.93 45.0915 188.36C43.991 187.864 42.7765 187.589 41.5 187.589C36.521 187.589 32.4847 191.775 32.4847 196.938C32.4847 202.101 36.521 206.287 41.5 206.287C46.479 206.287 50.5153 202.101 50.5153 196.938C50.5153 195.507 50.2051 194.151 49.6508 192.938Z" fill="#C4C4C4"/>
<mask id="mask0_2090_87935" style="mask-type:alpha" maskUnits="userSpaceOnUse" x="32" y="187" width="19" height="20">
<path fill-rule="evenodd" clip-rule="evenodd" d="M49.6508 192.938C49.0909 193.445 48.3582 193.753 47.5563 193.753C45.7977 193.753 44.3722 192.274 44.3722 190.451C44.3722 189.657 44.6419 188.93 45.0915 188.36C43.991 187.864 42.7765 187.589 41.5 187.589C36.521 187.589 32.4847 191.775 32.4847 196.938C32.4847 202.101 36.521 206.287 41.5 206.287C46.479 206.287 50.5153 202.101 50.5153 196.938C50.5153 195.507 50.2051 194.151 49.6508 192.938Z" fill="#373D43"/>
</mask>
<g mask="url(#mask0_2090_87935)">
<ellipse cx="41.5" cy="196.938" rx="9.01529" ry="9.34918" fill="#183EAD"/>
<path d="M41.4225 202.363L41.6224 202.966L42.2537 202.971C42.3355 202.971 42.3694 203.076 42.3036 203.125L41.7957 203.502L41.9861 204.107C42.0107 204.186 41.9221 204.251 41.8555 204.203L41.3418 203.834L40.8282 204.203C40.7617 204.251 40.6729 204.186 40.6976 204.107L40.888 203.502L40.3801 203.125C40.3143 203.076 40.3482 202.971 40.43 202.971L41.0613 202.966L41.2611 202.363C41.2869 202.285 41.3967 202.285 41.4225 202.363Z" fill="#FCCB74"/>
<path d="M41.4225 189.896L41.6224 190.499L42.2537 190.504C42.3355 190.504 42.3694 190.609 42.3036 190.658L41.7957 191.035L41.9861 191.641C42.0107 191.719 41.9221 191.784 41.8555 191.736L41.3418 191.367L40.8282 191.736C40.7617 191.784 40.6729 191.719 40.6976 191.641L40.888 191.035L40.3801 190.658C40.3143 190.609 40.3482 190.504 40.43 190.504L41.0613 190.499L41.2611 189.896C41.2869 189.818 41.3967 189.818 41.4225 189.896Z" fill="#FCCB74"/>
<path d="M35.4349 196.343L35.6347 196.945L36.2661 196.95C36.3479 196.951 36.3818 197.055 36.316 197.104L35.8081 197.482L35.9985 198.087C36.0232 198.165 35.9344 198.23 35.8679 198.182L35.3542 197.813L34.8406 198.182C34.7741 198.23 34.6853 198.165 34.71 198.087L34.9004 197.482L34.3924 197.104C34.3267 197.055 34.3605 196.951 34.4423 196.95L35.0737 196.945L35.2735 196.343C35.2994 196.265 35.4091 196.265 35.4349 196.343Z" fill="#FCCB74"/>
<path d="M47.496 196.343L47.6958 196.945L48.3272 196.95C48.409 196.951 48.4428 197.055 48.3771 197.104L47.8691 197.482L48.0595 198.087C48.0842 198.165 47.9955 198.23 47.9289 198.182L47.4153 197.813L46.9016 198.182C46.8351 198.23 46.7463 198.165 46.771 198.087L46.9614 197.482L46.4534 197.104C46.3877 197.055 46.4216 196.951 46.5033 196.95L47.1347 196.945L47.3346 196.343C47.3604 196.265 47.4702 196.265 47.496 196.343Z" fill="#FCCB74"/>
<path d="M36.3338 193.198L36.5336 193.801L37.165 193.805C37.2468 193.806 37.2806 193.911 37.2149 193.96L36.7069 194.337L36.8973 194.942C36.922 195.021 36.8333 195.086 36.7667 195.038L36.2531 194.669L35.7394 195.038C35.6729 195.086 35.5841 195.021 35.6088 194.942L35.7992 194.337L35.2913 193.96C35.2255 193.911 35.2594 193.806 35.3412 193.805L35.9726 193.801L36.1724 193.198C36.1982 193.12 36.3079 193.12 36.3338 193.198Z" fill="#FCCB74"/>
<path d="M46.7041 199.22L46.9039 199.822L47.5353 199.827C47.6171 199.828 47.651 199.932 47.5852 199.981L47.0772 200.359L47.2677 200.964C47.2923 201.042 47.2036 201.107 47.1371 201.059L46.6234 200.69L46.1097 201.059C46.0432 201.107 45.9545 201.042 45.9791 200.964L46.1696 200.359L45.6616 199.981C45.5959 199.932 45.6297 199.828 45.7115 199.827L46.3429 199.822L46.5427 199.22C46.5685 199.142 46.6783 199.142 46.7041 199.22Z" fill="#FCCB74"/>
<path d="M44.5135 190.995L44.7133 191.597L45.3448 191.602C45.4265 191.603 45.4604 191.708 45.3946 191.757L44.8867 192.134L45.0771 192.739C45.1018 192.818 45.013 192.883 44.9465 192.835L44.4328 192.465L43.9191 192.835C43.8526 192.882 43.7638 192.818 43.7885 192.739L43.9789 192.134L43.4709 191.757C43.4052 191.708 43.4391 191.603 43.5208 191.602L44.1523 191.597L44.352 190.995C44.3779 190.917 44.4876 190.917 44.5135 190.995Z" fill="#FCCB74"/>
<path d="M38.5253 201.424L38.7251 202.026L39.3565 202.031C39.4383 202.032 39.4722 202.137 39.4064 202.185L38.8985 202.563L39.0889 203.168C39.1136 203.246 39.0248 203.311 38.9583 203.263L38.4446 202.894L37.931 203.263C37.8645 203.311 37.7757 203.246 37.8004 203.168L37.9908 202.563L37.4829 202.185C37.4171 202.137 37.451 202.032 37.5328 202.031L38.1641 202.026L38.3639 201.424C38.3898 201.346 38.4996 201.346 38.5253 201.424Z" fill="#FCCB74"/>
<path d="M46.5427 193.198L46.3429 193.801L45.7115 193.805C45.6297 193.806 45.5959 193.911 45.6616 193.96L46.1696 194.337L45.9791 194.942C45.9545 195.021 46.0432 195.086 46.1097 195.038L46.6234 194.669L47.1371 195.038C47.2035 195.086 47.2923 195.021 47.2677 194.942L47.0772 194.337L47.5852 193.96C47.651 193.911 47.6171 193.806 47.5353 193.805L46.9039 193.801L46.7041 193.198C46.6783 193.12 46.5685 193.12 46.5427 193.198Z" fill="#FCCB74"/>
<path d="M36.1724 199.22L35.9726 199.822L35.3412 199.827C35.2594 199.828 35.2255 199.932 35.2913 199.981L35.7992 200.359L35.6088 200.964C35.5841 201.042 35.6729 201.107 35.7394 201.059L36.2531 200.69L36.7667 201.059C36.8332 201.107 36.922 201.042 36.8974 200.964L36.7069 200.359L37.2149 199.981C37.2806 199.932 37.2468 199.828 37.165 199.827L36.5336 199.822L36.3338 199.22C36.3079 199.142 36.1982 199.142 36.1724 199.22Z" fill="#FCCB74"/>
<path d="M38.364 190.995L38.1642 191.597L37.5328 191.602C37.451 191.603 37.4171 191.708 37.4829 191.757L37.9908 192.134L37.8004 192.739C37.7757 192.818 37.8645 192.883 37.931 192.835L38.4447 192.465L38.9583 192.835C39.0248 192.882 39.1136 192.818 39.089 192.739L38.8985 192.134L39.4065 191.757C39.4723 191.708 39.4384 191.603 39.3566 191.602L38.7252 191.597L38.5254 190.995C38.4995 190.917 38.3898 190.917 38.364 190.995Z" fill="#FCCB74"/>
<path d="M44.352 201.424L44.1522 202.026L43.5208 202.031C43.4391 202.032 43.4052 202.137 43.4709 202.185L43.9789 202.563L43.7885 203.168C43.7638 203.246 43.8525 203.311 43.9191 203.263L44.4328 202.894L44.9464 203.263C45.0129 203.311 45.1017 203.246 45.077 203.168L44.8866 202.563L45.3945 202.185C45.4602 202.137 45.4264 202.032 45.3446 202.031L44.7132 202.026L44.5135 201.424C44.4876 201.346 44.3779 201.346 44.352 201.424Z" fill="#FCCB74"/>
</g>
<ellipse cx="47.6327" cy="190.361" rx="2.67317" ry="2.77218" fill="#373D43"/>
<path d="M48.5201 191.617L48.4777 191.437C48.4636 191.394 48.4213 191.369 48.3718 191.382C48.3012 191.394 48.1883 191.413 48.0541 191.413C47.5952 191.413 47.2281 191.165 47.0798 190.812H47.9976C48.0329 190.812 48.0683 190.788 48.0753 190.751L48.1106 190.602C48.1247 190.553 48.0824 190.515 48.0329 190.515H46.988C46.9739 190.41 46.9739 190.311 46.981 190.218H48.1318C48.1671 190.218 48.2024 190.194 48.2095 190.157L48.2448 190.008C48.2589 189.965 48.2165 189.921 48.1671 189.921H47.0586C47.2069 189.556 47.567 189.315 48.047 189.315C48.1459 189.315 48.2518 189.327 48.3153 189.334C48.3577 189.34 48.4001 189.321 48.4142 189.284L48.4707 189.098C48.4777 189.055 48.4495 189.012 48.4001 189.006C48.3224 188.993 48.1953 188.975 48.0541 188.975C47.3481 188.975 46.7833 189.377 46.5997 189.915H46.3808C46.3314 189.915 46.2961 189.952 46.2961 189.989V190.138C46.2961 190.181 46.3314 190.212 46.3808 190.212H46.5432C46.5291 190.311 46.5362 190.435 46.5432 190.509H46.3808C46.3314 190.509 46.2961 190.546 46.2961 190.583V190.732C46.2961 190.775 46.3314 190.806 46.3808 190.806H46.6068C46.7903 191.357 47.334 191.747 48.0541 191.747C48.2236 191.747 48.3718 191.722 48.4565 191.703C48.506 191.697 48.5342 191.654 48.5201 191.617Z" fill="white"/>
</g>
<path fill-rule="evenodd" clip-rule="evenodd" d="M53.7054 186.297C52.8671 187.057 51.7699 187.517 50.569 187.517C47.9357 187.517 45.801 185.304 45.801 182.573C45.801 181.385 46.2049 180.295 46.8781 179.442C45.2302 178.699 43.4115 178.287 41.5 178.287C34.0442 178.287 28 184.555 28 192.287C28 200.019 34.0442 206.287 41.5 206.287C48.9558 206.287 55 200.019 55 192.287C55 190.144 54.5356 188.113 53.7054 186.297Z" fill="#C4C4C4"/>
<mask id="mask1_2090_87935" style="mask-type:alpha" maskUnits="userSpaceOnUse" x="28" y="178" width="27" height="29">
<path fill-rule="evenodd" clip-rule="evenodd" d="M53.7054 186.297C52.8671 187.057 51.7699 187.517 50.569 187.517C47.9357 187.517 45.801 185.304 45.801 182.573C45.801 181.385 46.2049 180.295 46.8781 179.442C45.2302 178.699 43.4115 178.287 41.5 178.287C34.0442 178.287 28 184.555 28 192.287C28 200.019 34.0442 206.287 41.5 206.287C48.9558 206.287 55 200.019 55 192.287C55 190.144 54.5356 188.113 53.7054 186.297Z" fill="#373D43"/>
</mask>
<g mask="url(#mask1_2090_87935)">
<ellipse cx="41.5" cy="192.287" rx="13.5" ry="14" fill="#183EAD"/>
<path d="M41.384 200.412L41.6832 201.314L42.6287 201.321C42.7511 201.322 42.8019 201.479 42.7034 201.552L41.9427 202.117L42.2279 203.024C42.2648 203.141 42.132 203.238 42.0323 203.167L41.2632 202.614L40.494 203.167C40.3945 203.238 40.2615 203.141 40.2985 203.024L40.5836 202.117L39.823 201.552C39.7245 201.479 39.7753 201.322 39.8977 201.321L40.8431 201.314L41.1423 200.412C41.1809 200.295 41.3453 200.295 41.384 200.412Z" fill="#FCCB74"/>
<path d="M41.384 181.743L41.6832 182.645L42.6287 182.652C42.7511 182.653 42.8019 182.81 42.7034 182.883L41.9427 183.448L42.2279 184.355C42.2648 184.472 42.132 184.569 42.0323 184.498L41.2632 183.945L40.494 184.498C40.3945 184.569 40.2615 184.472 40.2985 184.355L40.5836 183.448L39.823 182.883C39.7245 182.81 39.7753 182.653 39.8977 182.652L40.8431 182.645L41.1423 181.743C41.1809 181.626 41.3453 181.626 41.384 181.743Z" fill="#FCCB74"/>
<path d="M32.4178 191.396L32.717 192.298L33.6625 192.306C33.785 192.306 33.8357 192.464 33.7373 192.537L32.9766 193.102L33.2618 194.008C33.2987 194.125 33.1658 194.223 33.0662 194.151L32.297 193.598L31.5278 194.151C31.4282 194.223 31.2953 194.125 31.3322 194.008L31.6174 193.102L30.8567 192.537C30.7582 192.464 30.809 192.306 30.9314 192.306L31.8769 192.298L32.1761 191.396C32.2148 191.279 32.3792 191.279 32.4178 191.396Z" fill="#FCCB74"/>
<path d="M50.4787 191.396L50.7779 192.298L51.7234 192.306C51.8459 192.306 51.8966 192.464 51.7981 192.537L51.0375 193.102L51.3226 194.008C51.3596 194.125 51.2267 194.223 51.1271 194.151L50.3579 193.598L49.5887 194.151C49.4891 194.223 49.3562 194.125 49.3931 194.008L49.6783 193.102L48.9176 192.537C48.8191 192.464 48.8698 192.306 48.9923 192.306L49.9378 192.298L50.237 191.396C50.2757 191.279 50.4401 191.279 50.4787 191.396Z" fill="#FCCB74"/>
<path d="M33.7638 186.688L34.063 187.59L35.0085 187.598C35.131 187.598 35.1817 187.756 35.0832 187.829L34.3226 188.394L34.6077 189.3C34.6447 189.417 34.5118 189.515 34.4122 189.443L33.643 188.89L32.8738 189.443C32.7742 189.514 32.6413 189.417 32.6782 189.3L32.9634 188.394L32.2027 187.829C32.1043 187.756 32.155 187.598 32.2774 187.598L33.2229 187.59L33.5221 186.688C33.5608 186.571 33.725 186.571 33.7638 186.688Z" fill="#FCCB74"/>
<path d="M49.293 195.704L49.5922 196.606L50.5377 196.613C50.6601 196.614 50.7108 196.771 50.6124 196.844L49.8517 197.409L50.1369 198.316C50.1738 198.433 50.041 198.53 49.9413 198.459L49.1721 197.906L48.4029 198.459C48.3033 198.53 48.1704 198.433 48.2073 198.316L48.4925 197.409L47.7318 196.844C47.6334 196.771 47.6841 196.614 47.8066 196.613L48.7521 196.606L49.0513 195.704C49.0899 195.587 49.2543 195.587 49.293 195.704Z" fill="#FCCB74"/>
<path d="M46.0127 183.387L46.3119 184.289L47.2574 184.297C47.3799 184.298 47.4306 184.455 47.3321 184.528L46.5715 185.093L46.8567 185.999C46.8936 186.117 46.7607 186.214 46.6611 186.142L45.8918 185.589L45.1225 186.142C45.023 186.214 44.89 186.117 44.927 185.999L45.2121 185.093L44.4515 184.528C44.353 184.455 44.4037 184.298 44.5262 184.297L45.4717 184.289L45.7709 183.387C45.8096 183.271 45.9738 183.271 46.0127 183.387Z" fill="#FCCB74"/>
<path d="M37.0456 199.005L37.3448 199.907L38.2902 199.914C38.4127 199.915 38.4634 200.072 38.365 200.145L37.6043 200.71L37.8895 201.616C37.9265 201.734 37.7936 201.831 37.6939 201.759L36.9248 201.206L36.1556 201.759C36.056 201.831 35.9231 201.734 35.96 201.616L36.2452 200.71L35.4845 200.145C35.3861 200.072 35.4368 199.915 35.5593 199.914L36.5047 199.907L36.8039 199.005C36.8426 198.888 37.007 198.888 37.0456 199.005Z" fill="#FCCB74"/>
<path d="M49.0513 186.688L48.752 187.59L47.8066 187.598C47.6841 187.598 47.6334 187.756 47.7318 187.829L48.4925 188.394L48.2073 189.3C48.1704 189.417 48.3032 189.515 48.4029 189.443L49.1721 188.89L49.9413 189.443C50.0408 189.514 50.1738 189.417 50.1369 189.3L49.8517 188.394L50.6124 187.829C50.7108 187.756 50.6601 187.598 50.5377 187.598L49.5921 187.59L49.293 186.688C49.2543 186.571 49.0899 186.571 49.0513 186.688Z" fill="#FCCB74"/>
<path d="M33.5221 195.704L33.2229 196.606L32.2774 196.613C32.155 196.614 32.1043 196.771 32.2027 196.844L32.9634 197.409L32.6782 198.316C32.6413 198.433 32.7742 198.53 32.8738 198.459L33.643 197.906L34.4122 198.459C34.5117 198.53 34.6447 198.433 34.6078 198.316L34.3226 197.409L35.0833 196.844C35.1817 196.771 35.131 196.614 35.0085 196.613L34.063 196.606L33.7639 195.704C33.7251 195.587 33.5608 195.587 33.5221 195.704Z" fill="#FCCB74"/>
<path d="M36.804 183.387L36.5048 184.289L35.5593 184.297C35.4368 184.298 35.3861 184.455 35.4846 184.528L36.2452 185.093L35.96 185.999C35.9231 186.117 36.056 186.214 36.1556 186.142L36.9248 185.589L37.694 186.142C37.7936 186.214 37.9266 186.117 37.8896 185.999L37.6044 185.093L38.3651 184.528C38.4636 184.455 38.4129 184.298 38.2903 184.297L37.3449 184.289L37.0457 183.387C37.0069 183.271 36.8427 183.271 36.804 183.387Z" fill="#FCCB74"/>
<path d="M45.7709 199.005L45.4716 199.907L44.5262 199.914C44.4037 199.915 44.353 200.072 44.4515 200.145L45.2121 200.71L44.927 201.616C44.89 201.734 45.0228 201.831 45.1225 201.759L45.8917 201.206L46.6609 201.759C46.7604 201.831 46.8934 201.734 46.8565 201.616L46.5713 200.71L47.3319 200.145C47.4304 200.072 47.3796 199.915 47.2572 199.914L46.3117 199.907L46.0126 199.005C45.9738 198.888 45.8096 198.888 45.7709 199.005Z" fill="#FCCB74"/>
</g>
<ellipse cx="50.6835" cy="182.438" rx="4.00296" ry="4.15122" fill="#373D43"/>
<path d="M52.0123 184.319L51.9488 184.05C51.9277 183.985 51.8643 183.948 51.7903 183.967C51.6845 183.985 51.5154 184.013 51.3145 184.013C50.6273 184.013 50.0775 183.643 49.8555 183.114H51.2299C51.2828 183.114 51.3357 183.077 51.3462 183.022L51.3991 182.799C51.4202 182.725 51.3568 182.67 51.2828 182.67H49.7181C49.6969 182.512 49.6969 182.364 49.7075 182.225H51.4308C51.4837 182.225 51.5366 182.188 51.5471 182.132L51.6 181.91C51.6211 181.845 51.5577 181.78 51.4837 181.78H49.8238C50.0458 181.233 50.585 180.872 51.3039 180.872C51.4519 180.872 51.6105 180.89 51.7057 180.9C51.7691 180.909 51.8326 180.881 51.8537 180.826L51.9383 180.548C51.9488 180.483 51.9066 180.418 51.8326 180.409C51.7162 180.39 51.526 180.362 51.3145 180.362C50.2573 180.362 49.4115 180.965 49.1366 181.771H48.8088C48.7348 181.771 48.6819 181.826 48.6819 181.882V182.104C48.6819 182.169 48.7348 182.216 48.8088 182.216H49.052C49.0309 182.364 49.0414 182.549 49.052 182.66H48.8088C48.7348 182.66 48.6819 182.716 48.6819 182.772V182.994C48.6819 183.059 48.7348 183.105 48.8088 183.105H49.1472C49.4221 183.93 50.2361 184.514 51.3145 184.514C51.5683 184.514 51.7903 184.476 51.9171 184.449C51.9912 184.439 52.0334 184.375 52.0123 184.319Z" fill="white"/>
<defs>
<filter id="filter0_f_2090_87935" x="-220.515" y="-65.4111" width="524.031" height="524.698" filterUnits="userSpaceOnUse" color-interpolation-filters="sRGB">
<feFlood flood-opacity="0" result="BackgroundImageFix"/>
<feBlend mode="normal" in="SourceGraphic" in2="BackgroundImageFix" result="shape"/>
<feGaussianBlur stdDeviation="126.5" result="effect1_foregroundBlur_2090_87935"/>
</filter>
</defs>
</svg>
