<svg width="22" height="22" viewBox="0 0 22 22" fill="none" xmlns="http://www.w3.org/2000/svg">
<path d="M20.8075 8.64097C20.8075 9.60561 20.0246 10.3885 19.06 10.3885C18.8136 10.3885 18.5794 10.336 18.3662 10.2443L15.4207 13.1899C15.5133 13.4031 15.5658 13.6363 15.5658 13.8836C15.5658 14.8482 14.7829 15.6311 13.8182 15.6311C12.8536 15.6311 12.0663 14.8482 12.0663 13.8836C12.0663 13.645 12.1144 13.4179 12.2009 13.2099L9.24491 10.2539C9.0387 10.3395 8.81239 10.3877 8.5756 10.3877C8.3292 10.3877 8.09504 10.3352 7.88184 10.2434L4.93636 13.189C5.02898 13.4022 5.0814 13.6355 5.0814 13.8827C5.0814 14.8474 4.29851 15.6303 3.33387 15.6303C2.36923 15.6303 1.58195 14.8474 1.58195 13.8827C1.58195 12.9181 2.35961 12.1352 3.32512 12.1352H3.33387C3.57153 12.1352 3.79696 12.1833 4.00317 12.2689L6.96 9.31208C6.8735 9.105 6.82457 8.87778 6.82457 8.64012C6.82457 7.67548 7.60222 6.89258 8.56774 6.89258H8.57648C9.54112 6.89258 10.324 7.67548 10.324 8.64012C10.324 8.88652 10.2716 9.12064 10.179 9.33384L13.1218 12.2766C13.3324 12.1858 13.5648 12.1352 13.8095 12.1352H13.8182C14.0559 12.1352 14.2813 12.1833 14.4875 12.2689L17.4444 9.31208C17.3579 9.105 17.3089 8.87778 17.3089 8.64012C17.3089 7.67548 18.0866 6.89258 19.0521 6.89258H19.0608C20.0255 6.89345 20.8075 7.67633 20.8075 8.64097Z" fill="#718096"/>
</svg>
