<svg width="5" height="21" viewBox="0 0 5 21" fill="none" xmlns="http://www.w3.org/2000/svg">
<path d="M4.55469 18.0692C4.55469 19.1732 3.65869 20.0742 2.55469 20.0742C1.45069 20.0742 0.554687 19.1842 0.554687 18.0792L0.554687 18.0692C0.554687 16.9652 1.45069 16.0692 2.55469 16.0692C3.65869 16.0692 4.55469 16.9642 4.55469 18.0692ZM2.55469 8.06921C1.45069 8.06921 0.554687 8.96521 0.554687 10.0692L0.554687 10.0792C0.554687 11.1832 1.45069 12.0742 2.55469 12.0742C3.65869 12.0742 4.55469 11.1742 4.55469 10.0692C4.55469 8.96421 3.65869 8.06921 2.55469 8.06921ZM2.55469 0.0692138C1.45069 0.0692138 0.554687 0.965214 0.554687 2.06921L0.554687 2.07922C0.554687 3.18322 1.45069 4.07422 2.55469 4.07422C3.65869 4.07422 4.55469 3.17421 4.55469 2.06921C4.55469 0.964214 3.65869 0.0692137 2.55469 0.0692138Z" fill="#CBD5E0"/>
</svg>
