<svg width="31" height="31" viewBox="0 0 31 31" fill="none" xmlns="http://www.w3.org/2000/svg">
<path d="M23.1317 7.98077H21.5702V6.10693C21.5702 4.90767 20.5833 3.92078 19.384 3.92078H11.8887C10.6894 3.92078 9.70253 4.90767 9.70253 6.10693V7.98077H8.141C5.64254 7.98077 4.39331 9.23 4.39331 11.7285V22.9715C4.39331 25.47 5.64254 26.7192 8.141 26.7192H23.1317C25.6302 26.7192 26.8794 25.47 26.8794 22.9715V11.7285C26.8794 9.23 25.6302 7.98077 23.1317 7.98077ZM8.141 18.5992C7.45142 18.5992 6.89177 18.0396 6.89177 17.35C6.89177 16.6604 7.45142 16.1008 8.141 16.1008C8.83057 16.1008 9.39022 16.6604 9.39022 17.35C9.39022 18.0396 8.83057 18.5992 8.141 18.5992ZM15.6364 21.0977C13.5664 21.0977 11.8887 19.42 11.8887 17.35C11.8887 15.28 13.5664 13.6023 15.6364 13.6023C17.7063 13.6023 19.384 15.28 19.384 17.35C19.384 19.42 17.7063 21.0977 15.6364 21.0977ZM11.5764 7.98077V6.10693C11.5764 5.93203 11.7138 5.79462 11.8887 5.79462H19.384C19.5589 5.79462 19.6964 5.93203 19.6964 6.10693V7.98077H11.5764ZM23.1317 18.5992C22.4422 18.5992 21.8825 18.0396 21.8825 17.35C21.8825 16.6604 22.4422 16.1008 23.1317 16.1008C23.8213 16.1008 24.381 16.6604 24.381 17.35C24.381 18.0396 23.8213 18.5992 23.1317 18.5992Z" fill="#3350DB"/>
</svg>
