<svg width="16" height="16" viewBox="0 0 16 16" fill="none" xmlns="http://www.w3.org/2000/svg">
<path d="M13.3218 6.67532V11.644C13.3218 12.894 12.6968 13.519 11.4468 13.519H3.94678C2.69678 13.519 2.07178 12.894 2.07178 11.644V6.67532C2.07178 6.57157 2.15556 6.48779 2.25931 6.48779H13.1342C13.238 6.48779 13.3218 6.57157 13.3218 6.67532ZM11.4468 3.20654H10.6655V2.26904C10.6655 2.01279 10.453 1.80029 10.1968 1.80029C9.94053 1.80029 9.72803 2.01279 9.72803 2.26904V3.20654H5.66553V2.26904C5.66553 2.01279 5.45303 1.80029 5.19678 1.80029C4.94053 1.80029 4.72803 2.01279 4.72803 2.26904V3.20654H3.94678C2.69678 3.20654 2.07178 3.83154 2.07178 5.08154V5.36276C2.07178 5.46651 2.15556 5.55029 2.25931 5.55029H13.1342C13.238 5.55029 13.3218 5.46651 13.3218 5.36276V5.08154C13.3218 3.83154 12.6968 3.20654 11.4468 3.20654Z" fill="#2CD47D"/>
</svg>
