<svg width="34" height="31" viewBox="0 0 34 31" fill="none" xmlns="http://www.w3.org/2000/svg">
<path d="M16.6667 11.6667H20V7.29167H25V4.375H20V0H16.6667V4.375H11.6667V7.29167H16.6667V11.6667ZM10 24.7917C8.16667 24.7917 6.68333 26.1042 6.68333 27.7083C6.68333 29.3125 8.16667 30.625 10 30.625C11.8333 30.625 13.3333 29.3125 13.3333 27.7083C13.3333 26.1042 11.8333 24.7917 10 24.7917ZM26.6667 24.7917C24.8333 24.7917 23.35 26.1042 23.35 27.7083C23.35 29.3125 24.8333 30.625 26.6667 30.625C28.5 30.625 30 29.3125 30 27.7083C30 26.1042 28.5 24.7917 26.6667 24.7917ZM10.2833 20.0521L10.3333 19.8771L11.8333 17.5H24.25C25.5 17.5 26.6 16.9021 27.1667 15.9979L33.6 5.775L30.7 4.375H30.6833L28.85 7.29167L24.25 14.5833H12.55L12.3333 14.1896L8.6 7.29167L7.01667 4.375L5.45 1.45833H0V4.375H3.33333L9.33333 15.4438L7.08333 19.0167C6.81667 19.425 6.66667 19.9062 6.66667 20.4167C6.66667 22.0208 8.16667 23.3333 10 23.3333H30V20.4167H10.7C10.4833 20.4167 10.2833 20.2563 10.2833 20.0521Z" fill="black"/>
</svg>
