<svg width="31" height="32" viewBox="0 0 31 32" fill="none" xmlns="http://www.w3.org/2000/svg">
<circle cx="15.5" cy="16.249" r="15.5" fill="url(#paint0_linear_2189_17540)"/>
<path fill-rule="evenodd" clip-rule="evenodd" d="M22.1863 10.4481C22.1863 14.4703 22.1863 18.4805 22.1863 22.504C21.3461 22.504 20.5096 22.504 19.6522 22.504C19.6522 22.1382 19.6522 21.7711 19.6522 21.369C19.4631 21.4982 19.3013 21.6008 19.1505 21.7179C19.1172 21.7433 19.1159 21.8194 19.1159 21.8725C19.1135 22.6429 19.1147 23.4145 19.1135 24.1849C19.1135 24.4083 19.0678 24.4542 18.8429 24.4542C18.277 24.4554 17.7111 24.4542 17.1452 24.4542C16.9142 24.4542 16.8648 24.4047 16.8635 24.1741C16.8623 23.7224 16.8635 23.2708 16.8623 22.8204C16.8623 22.7612 16.8623 22.7009 16.8623 22.632C15.9183 22.8035 14.9966 22.8168 14.0564 22.6103C14.0564 22.6767 14.0564 22.7298 14.0564 22.783C14.0564 23.2551 14.0576 23.7261 14.0551 24.1982C14.0551 24.3938 13.9946 24.453 13.7957 24.453C13.2149 24.4542 12.633 24.4542 12.0523 24.453C11.8583 24.453 11.8052 24.3974 11.8039 24.2067C11.8027 23.4049 11.8052 22.6043 11.799 21.8025C11.799 21.7397 11.7644 21.6515 11.715 21.6165C10.2163 20.5587 9.2723 19.1459 8.93994 17.3708C8.46302 14.8229 9.35508 12.7532 11.3233 11.0832C11.4358 10.9878 11.563 10.9033 11.6927 10.8321C11.7768 10.785 11.8039 10.7342 11.8039 10.6425C11.8002 9.86604 11.8015 9.0908 11.8015 8.31436C11.8015 8.09218 11.8497 8.04387 12.0721 8.04387C12.6429 8.04267 13.2137 8.04267 13.7845 8.04387C14.0008 8.04387 14.0588 8.10184 14.0588 8.31678C14.0601 8.76356 14.0588 9.20914 14.0588 9.65593C14.0588 9.71147 14.0588 9.76581 14.0588 9.83947C14.9904 9.64023 15.9097 9.63057 16.8574 9.82015C16.8574 9.74287 16.8574 9.68491 16.8574 9.62574C16.8574 9.18982 16.8561 8.7539 16.8574 8.31678C16.8574 8.10184 16.9167 8.04387 17.1329 8.04387C17.7037 8.04267 18.2745 8.04267 18.8454 8.04387C19.0678 8.04387 19.1184 8.09338 19.1196 8.31557C19.1209 9.06061 19.1221 9.80687 19.1159 10.5519C19.1147 10.6799 19.1542 10.7572 19.2691 10.8176C19.3865 10.8792 19.4928 10.9613 19.6336 11.0542C19.6336 10.8405 19.6336 10.6485 19.6336 10.4493C20.4973 10.4481 21.3325 10.4481 22.1863 10.4481ZM19.6423 16.1826C19.6349 16.1826 19.6287 16.1826 19.6213 16.1826C19.6213 15.9496 19.6163 15.7165 19.6225 15.4835C19.6287 15.2432 19.6114 15.0077 19.494 14.7903C19.3495 14.5211 19.2259 14.2409 19.0579 13.9861C18.2832 12.8088 17.2169 12.0951 15.7454 12.0625C14.8644 12.0432 14.0168 12.1893 13.257 12.647C11.9559 13.4319 11.4259 14.6527 11.2949 16.0752C11.2319 16.7574 11.4333 17.3998 11.731 18.012C12.8529 20.316 15.261 20.8328 17.1106 20.0914C18.4055 19.5722 19.1579 18.5542 19.6238 17.3044C19.6423 17.2537 19.6435 17.1945 19.6435 17.1402C19.6435 16.8214 19.6423 16.5014 19.6423 16.1826Z" fill="white"/>
<defs>
<linearGradient id="paint0_linear_2189_17540" x1="15.5" y1="0.749023" x2="15.5" y2="31.749" gradientUnits="userSpaceOnUse">
<stop stop-color="#2540C5"/>
<stop offset="1" stop-color="#021C98"/>
</linearGradient>
</defs>
</svg>
