<svg width="16" height="15" viewBox="0 0 16 15" fill="none" xmlns="http://www.w3.org/2000/svg">
<path d="M13.0747 6.99454C13.4184 7.52537 13.4184 8.19035 13.0747 8.72118C12.3059 9.91702 10.5871 11.9412 7.70586 11.9412C7.23836 11.9412 6.79838 11.8858 6.38963 11.7895C6.25026 11.7569 6.20643 11.5901 6.3083 11.4956L7.4933 10.3896C7.5658 10.3219 7.65586 10.337 7.70586 10.337C9.17086 10.337 10.3621 9.22461 10.3621 7.85786C10.3621 7.8112 10.3546 7.719 10.4065 7.67059L12.1202 6.07112C12.1996 5.99704 12.3333 6.00468 12.4027 6.08693C12.6777 6.41126 12.9015 6.72212 13.0747 6.99454ZM13.6621 2.91705L2.41212 13.417C2.32087 13.5022 2.20086 13.5454 2.08086 13.5454C1.96086 13.5454 1.84084 13.5028 1.74959 13.417C1.56646 13.2461 1.56646 12.969 1.74959 12.7981L4.06526 10.6368C3.27151 10.0062 2.6958 9.27886 2.33705 8.72061C1.9933 8.18978 1.9933 7.5248 2.33705 6.99397C3.1058 5.79814 4.82461 3.77396 7.70586 3.77396C8.84586 3.77396 9.79775 4.09299 10.589 4.54799L12.9996 2.29811C13.1827 2.12719 13.4796 2.12719 13.6627 2.29811C13.8459 2.46903 13.8452 2.74613 13.6621 2.91705ZM5.53087 9.26891L6.21141 8.63374C6.07266 8.40333 5.98711 8.14136 5.98711 7.85786C5.98711 7.6537 6.03082 7.4612 6.10582 7.28037C6.22457 7.3737 6.37454 7.43204 6.54329 7.43204C6.93079 7.43204 7.24962 7.13447 7.24962 6.7728C7.24962 6.6153 7.18711 6.47533 7.08711 6.3645C7.28086 6.2945 7.48711 6.2537 7.70586 6.2537C8.00961 6.2537 8.2909 6.33355 8.53715 6.46305L9.2177 5.82787C8.7877 5.54671 8.26773 5.3787 7.70586 5.3787C6.24336 5.3787 5.04961 6.49286 5.04961 7.85786C5.04961 8.38286 5.22962 8.86758 5.53087 9.26891Z" fill="#718096"/>
</svg>
