<svg width="29" height="29" viewBox="0 0 29 29" fill="none" xmlns="http://www.w3.org/2000/svg">
<path d="M21.7871 24.8449C21.6144 24.8449 21.4395 24.7935 21.2867 24.6874C20.89 24.4109 20.7943 23.8649 21.0708 23.4694C21.7684 22.4719 22.0788 21.1862 22.0788 19.3044V12.3044C22.0788 10.7737 21.6157 9.31997 20.7395 8.10197C20.4572 7.70997 20.5457 7.16295 20.9377 6.88062C21.3321 6.59828 21.8782 6.688 22.1594 7.08C23.2526 8.59783 23.8299 10.405 23.8299 12.3044V19.3044C23.8299 21.5677 23.4204 23.1625 22.5046 24.4726C22.3354 24.7141 22.0636 24.8449 21.7871 24.8449ZM7.49658 19.3032V12.3032C7.49658 8.28289 10.7679 5.01156 14.7882 5.01156C15.0449 5.01156 15.3003 5.02079 15.5581 5.05229C16.0341 5.10129 16.4728 4.76901 16.5311 4.28951C16.5895 3.80884 16.2479 3.37344 15.7684 3.3151C15.4429 3.27544 15.1149 3.2627 14.7882 3.2627C9.80308 3.2627 5.74658 7.3192 5.74658 12.3044V19.3044C5.74658 19.7874 6.13858 20.1794 6.62158 20.1794C7.10458 20.1794 7.49658 19.7862 7.49658 19.3032ZM15.2747 25.8646C17.8916 24.1158 19.1632 21.737 19.1632 18.5929V12.3032C19.1632 11.1366 18.707 10.0389 17.8798 9.21053C17.0911 8.4242 16.0026 7.95622 14.8908 7.92822C14.423 7.91772 14.0067 8.29917 13.9939 8.78101C13.9822 9.26401 14.3636 9.66539 14.8466 9.67822C15.5128 9.69456 16.1683 9.97562 16.6408 10.4481C17.1378 10.9451 17.411 11.6032 17.411 12.3032V18.5914C17.411 21.1418 16.4216 22.9899 14.2995 24.4085C13.8981 24.6769 13.7896 25.2205 14.0579 25.623C14.2283 25.875 14.5048 26.0116 14.7871 26.0116C14.9563 26.0116 15.1254 25.9638 15.2747 25.8646ZM10.7795 20.9681C11.672 19.8061 12.1632 18.357 12.1632 16.8881V12.3032C12.1632 12.0302 12.1995 11.7735 12.2706 11.5647C12.4235 11.1062 12.1749 10.6103 11.7152 10.4587C11.2567 10.3035 10.762 10.5544 10.6092 11.0129C10.4797 11.4038 10.4132 11.8389 10.4132 12.3044V16.8893C10.4132 17.9743 10.0504 19.0453 9.39242 19.9028C9.09725 20.2866 9.17068 20.835 9.55334 21.1301C9.71318 21.2515 9.89991 21.311 10.0854 21.311C10.3479 21.3098 10.608 21.1921 10.7795 20.9681ZM15.6632 18.1366V13.4699C15.6632 12.9869 15.2712 12.5949 14.7882 12.5949C14.3052 12.5949 13.9132 12.9869 13.9132 13.4699V18.1366C13.9132 18.6196 14.3052 19.0116 14.7882 19.0116C15.2712 19.0116 15.6632 18.6196 15.6632 18.1366Z" fill="#061237"/>
</svg>
