<svg width="24" height="25" viewBox="0 0 24 25" fill="none" xmlns="http://www.w3.org/2000/svg">
<g id="info-circle">
<path id="info-circle_2" d="M12 2.48633C6.477 2.48633 2 6.96333 2 12.4863C2 18.0093 6.477 22.4863 12 22.4863C17.523 22.4863 22 18.0093 22 12.4863C22 6.96333 17.523 2.48633 12 2.48633ZM12.75 16.9863C12.75 17.4003 12.414 17.7363 12 17.7363C11.586 17.7363 11.25 17.4003 11.25 16.9863V12.4153C11.25 12.0013 11.586 11.6653 12 11.6653C12.414 11.6653 12.75 12.0013 12.75 12.4153V16.9863ZM12.02 9.98633C11.468 9.98633 11.0149 9.53833 11.0149 8.98633C11.0149 8.43433 11.458 7.98633 12.01 7.98633H12.02C12.573 7.98633 13.02 8.43433 13.02 8.98633C13.02 9.53833 12.572 9.98633 12.02 9.98633Z" fill="#3350DB"/>
</g>
</svg>
