<svg width="118" height="142" viewBox="0 0 118 142" fill="none" xmlns="http://www.w3.org/2000/svg">
<g filter="url(#filter0_d_1987_97631)">
<circle cx="61.7975" cy="61.028" r="20.07" fill="#E2E8F0"/>
</g>
<path d="M67.0233 53.972L55.6147 56.8239C52.8889 57.5051 52.9159 61.3889 55.6512 62.0327L59.2001 62.8679C59.288 62.8888 59.3811 62.8627 59.4446 62.7984L63.5668 58.6762C63.8191 58.4239 64.2366 58.4239 64.4889 58.6762C64.7412 58.9285 64.7412 59.3461 64.4889 59.5984L60.365 63.7223C60.3015 63.7858 60.2746 63.8789 60.2955 63.9668L61.1298 67.5121C61.7737 70.2475 65.6573 70.2744 66.3385 67.5487L69.1905 56.1401C69.5168 54.8298 68.3309 53.6448 67.0233 53.972Z" fill="#25314C"/>
<defs>
<filter id="filter0_d_1987_97631" x="0.727539" y="0.958008" width="140.14" height="140.14" filterUnits="userSpaceOnUse" color-interpolation-filters="sRGB">
<feFlood flood-opacity="0" result="BackgroundImageFix"/>
<feColorMatrix in="SourceAlpha" type="matrix" values="0 0 0 0 0 0 0 0 0 0 0 0 0 0 0 0 0 0 127 0" result="hardAlpha"/>
<feOffset dx="9" dy="10"/>
<feGaussianBlur stdDeviation="25"/>
<feComposite in2="hardAlpha" operator="out"/>
<feColorMatrix type="matrix" values="0 0 0 0 0.929412 0 0 0 0 0.94902 0 0 0 0 0.968627 0 0 0 1 0"/>
<feBlend mode="normal" in2="BackgroundImageFix" result="effect1_dropShadow_1987_97631"/>
<feBlend mode="normal" in="SourceGraphic" in2="effect1_dropShadow_1987_97631" result="shape"/>
</filter>
</defs>
</svg>
