<svg width="29" height="29" viewBox="0 0 29 29" fill="none" xmlns="http://www.w3.org/2000/svg">
<path d="M20.3299 11.3813V8.98014C20.3299 5.92348 17.8449 3.43848 14.7882 3.43848C11.7316 3.43848 9.24658 5.92348 9.24658 8.98014V11.3813C7.49892 11.6531 6.62158 12.794 6.62158 14.8135V21.8135C6.62158 24.1468 7.78825 25.3135 10.1216 25.3135H19.4549C21.7882 25.3135 22.9549 24.1468 22.9549 21.8135V14.8135C22.9549 12.794 22.0776 11.6531 20.3299 11.3813ZM15.6632 18.2984V20.6468C15.6632 21.1298 15.2712 21.5218 14.7882 21.5218C14.3052 21.5218 13.9132 21.1298 13.9132 20.6468V18.269C13.5772 18.0019 13.3473 17.6076 13.3473 17.1468C13.3473 16.3418 13.9949 15.6885 14.7999 15.6885H14.8116C15.6166 15.6885 16.2699 16.3418 16.2699 17.1468C16.2699 17.6275 16.0214 18.0335 15.6632 18.2984ZM18.5799 11.3135H10.9966V8.98014C10.9966 6.89181 12.6999 5.18848 14.7882 5.18848C16.8766 5.18848 18.5799 6.89181 18.5799 8.98014V11.3135Z" fill="#3350DB"/>
</svg>
