<svg width="303" height="520" viewBox="0 0 303 520" fill="none" xmlns="http://www.w3.org/2000/svg">
<circle cx="66.5664" cy="275.943" r="31.3223" fill="white"/>
<path d="M64.9834 272.671C64.6954 271.249 63.5254 269.413 60.5194 269.413C58.1434 269.413 56.1814 271.177 56.1814 273.319C56.1814 275.227 57.4774 276.505 59.4214 276.901L61.2214 277.279C62.3194 277.513 62.9314 278.179 62.9314 279.007C62.9314 279.997 62.1394 280.771 60.6094 280.771C58.7734 280.771 57.8194 279.547 57.6934 278.215L55.6774 278.791C55.8754 280.627 57.3694 282.715 60.6094 282.715C63.5254 282.715 65.1274 280.825 65.1274 278.845C65.1274 277.045 63.9214 275.623 61.6714 275.173L59.8354 274.795C58.8454 274.579 58.3414 273.967 58.3414 273.157C58.3414 272.185 59.2414 271.321 60.5374 271.321C62.2474 271.321 62.9134 272.491 63.0394 273.283L64.9834 272.671ZM76.305 282.445H78.663L73.695 269.683H71.193L66.225 282.445H68.511L69.699 279.241H75.099L76.305 282.445ZM72.399 272.023L74.343 277.243H70.455L72.399 272.023Z" fill="#061237"/>
<g opacity="0.5" filter="url(#filter0_f_2553_127361)">
<mask id="mask0_2553_127361" style="mask-type:alpha" maskUnits="userSpaceOnUse" x="36" y="253" width="14" height="14">
<path fill-rule="evenodd" clip-rule="evenodd" d="M48.7336 257.617C48.3349 257.966 47.813 258.177 47.2419 258.177C45.9894 258.177 44.9741 257.161 44.9741 255.909C44.9741 255.364 45.1662 254.864 45.4864 254.473C44.7026 254.132 43.8376 253.943 42.9285 253.943C39.3823 253.943 36.5076 256.818 36.5076 260.364C36.5076 263.91 39.3823 266.785 42.9285 266.785C46.4746 266.785 49.3493 263.91 49.3493 260.364C49.3493 259.381 49.1285 258.45 48.7336 257.617Z" fill="#C4C4C4"/>
</mask>
<g mask="url(#mask0_2553_127361)">
<mask id="mask1_2553_127361" style="mask-type:alpha" maskUnits="userSpaceOnUse" x="36" y="253" width="14" height="14">
<ellipse cx="42.9285" cy="260.364" rx="6.42089" ry="6.4209" fill="#C4C4C4"/>
</mask>
<g mask="url(#mask1_2553_127361)">
<path d="M54.6955 259.032C54.6955 259.918 54.6955 260.807 54.6955 261.693C54.6782 261.693 54.6609 261.689 54.6393 261.689C51.2565 261.689 47.8737 261.689 44.4909 261.689C44.4217 261.689 44.4303 261.681 44.4303 261.747C44.4303 263.481 44.4303 265.212 44.4303 266.946C44.4303 266.963 44.4347 266.979 44.4347 267C43.5003 267 42.5616 267 41.6272 267C41.6272 266.983 41.6315 266.967 41.6315 266.946C41.6315 265.212 41.6315 263.481 41.6315 261.747C41.6315 261.681 41.6402 261.689 41.571 261.689C38.1882 261.689 34.8054 261.689 31.4226 261.689C31.4053 261.689 31.388 261.693 31.3663 261.693C31.3663 260.807 31.3663 259.918 31.3663 259.032C31.3836 259.032 31.4009 259.036 31.4226 259.036C34.8054 259.036 38.1882 259.036 41.571 259.036C41.6402 259.036 41.6315 259.044 41.6315 258.979C41.6315 257.244 41.6315 255.513 41.6315 253.779C41.6315 253.762 41.6272 253.746 41.6272 253.726C42.5616 253.726 43.5003 253.726 44.4347 253.726C44.4347 253.742 44.4303 253.758 44.4303 253.779C44.4303 255.513 44.4303 257.244 44.4303 258.979C44.4303 259.044 44.4217 259.036 44.4909 259.036C47.8737 259.036 51.2565 259.036 54.6393 259.036C54.6609 259.036 54.6782 259.036 54.6955 259.032Z" fill="#DD2E39"/>
<path d="M41.6317 253.729C41.6317 253.746 41.6361 253.762 41.6361 253.783C41.6361 255.517 41.6361 257.248 41.6361 258.982C41.6361 259.048 41.6447 259.04 41.5755 259.04C38.1927 259.04 34.8099 259.04 31.4271 259.04C31.4098 259.04 31.3925 259.036 31.3708 259.036C31.3708 258.741 31.3708 258.449 31.3708 258.154C33.0493 258.154 34.732 258.154 36.4234 258.154C36.4061 258.142 36.3975 258.138 36.3888 258.134C34.732 257.19 33.0709 256.247 31.4141 255.304C31.4011 255.296 31.3925 255.284 31.3752 255.288C31.3708 254.779 31.3708 254.271 31.3708 253.766C31.3708 253.734 31.3752 253.729 31.4098 253.729C32.3052 253.729 33.2007 253.729 34.0961 253.729C34.1091 253.738 34.1221 253.746 34.1351 253.754C36.311 254.993 38.4868 256.227 40.6627 257.465C40.6757 257.473 40.6844 257.486 40.706 257.482C40.706 256.231 40.706 254.98 40.706 253.729C41.0131 253.729 41.3203 253.729 41.6317 253.729Z" fill="#FEFEFE"/>
<path d="M54.6956 259.032C54.6783 259.032 54.661 259.036 54.6394 259.036C51.2566 259.036 47.8738 259.036 44.491 259.036C44.4217 259.036 44.4304 259.044 44.4304 258.979C44.4304 257.244 44.4304 255.513 44.4304 253.779C44.4304 253.762 44.4347 253.746 44.4347 253.726C44.7462 253.726 45.0533 253.726 45.3648 253.726C45.3648 254.976 45.3648 256.227 45.3648 257.486C45.3864 257.474 45.4037 257.465 45.421 257.453C47.3763 256.342 49.3316 255.226 51.2912 254.115C51.5205 253.984 51.7454 253.857 51.9704 253.726C52.8658 253.726 53.7613 253.726 54.6567 253.726C54.687 253.726 54.6956 253.73 54.6956 253.762C54.6956 254.271 54.6956 254.775 54.6956 255.284C54.6307 255.304 54.5788 255.345 54.5183 255.378C52.9091 256.293 51.2998 257.207 49.6906 258.122C49.6777 258.13 49.6603 258.134 49.6517 258.15C51.3345 258.15 53.0129 258.15 54.6956 258.15C54.6956 258.445 54.6956 258.741 54.6956 259.032Z" fill="#FEFEFE"/>
<path d="M31.3708 261.693C31.3882 261.693 31.4055 261.689 31.4271 261.689C34.8099 261.689 38.1927 261.689 41.5755 261.689C41.6447 261.689 41.6361 261.681 41.6361 261.746C41.6361 263.481 41.6361 265.211 41.6361 266.946C41.6361 266.962 41.6317 266.979 41.6317 266.999C41.3203 266.999 41.0131 266.999 40.7017 266.999C40.7017 265.748 40.7017 264.498 40.7017 263.243C40.68 263.255 40.6671 263.263 40.6541 263.272C38.7334 264.367 36.8084 265.457 34.8878 266.552C34.6239 266.704 34.36 266.852 34.0961 267.003C33.2007 267.003 32.3052 267.003 31.4098 267.003C31.3795 267.003 31.3708 266.999 31.3708 266.966C31.3708 266.462 31.3708 265.954 31.3708 265.449C31.3968 265.449 31.4098 265.433 31.4314 265.42C32.9801 264.539 34.5287 263.657 36.0817 262.775C36.1942 262.714 36.3023 262.648 36.4148 262.587C36.4148 262.583 36.4148 262.583 36.4148 262.579C34.7363 262.579 33.0536 262.579 31.3752 262.579C31.3708 262.279 31.3708 261.988 31.3708 261.693Z" fill="#FEFEFE"/>
<path d="M44.4389 266.999C44.4389 266.983 44.4346 266.966 44.4346 266.946C44.4346 265.211 44.4346 263.481 44.4346 261.746C44.4346 261.681 44.426 261.689 44.4952 261.689C47.878 261.689 51.2608 261.689 54.6436 261.689C54.6609 261.689 54.6782 261.693 54.6998 261.693C54.6998 261.988 54.6998 262.279 54.6998 262.575C53.0214 262.575 51.3386 262.575 49.6472 262.575C49.6689 262.587 49.6818 262.595 49.6905 262.599C51.3473 263.542 52.9998 264.481 54.6566 265.425C54.6695 265.433 54.6782 265.445 54.6955 265.441C54.6955 265.949 54.6955 266.454 54.6955 266.962C54.6955 266.991 54.6912 266.999 54.6566 266.999C53.7611 266.999 52.8657 266.999 51.9702 266.999C51.9572 266.991 51.9486 266.983 51.9356 266.979C49.7597 265.74 47.5795 264.502 45.4036 263.263C45.3906 263.255 45.382 263.243 45.3647 263.247C45.3647 264.498 45.3647 265.749 45.3647 266.999C45.0575 266.999 44.7461 266.999 44.4389 266.999Z" fill="#FEFEFE"/>
<path d="M40.7016 253.729C40.7016 254.98 40.7016 256.231 40.7016 257.482C40.6843 257.486 40.6714 257.473 40.6584 257.465C38.4868 256.227 36.3109 254.993 34.135 253.754C34.122 253.746 34.109 253.738 34.0961 253.729C36.2979 253.729 38.4998 253.729 40.7016 253.729Z" fill="#01338E"/>
<path d="M51.9745 253.729C51.7495 253.861 51.5203 253.988 51.2953 254.119C49.3401 255.23 47.3848 256.346 45.4252 257.457C45.4079 257.465 45.3906 257.478 45.369 257.49C45.369 256.235 45.369 254.98 45.369 253.729C47.5708 253.729 49.7726 253.729 51.9745 253.729Z" fill="#01338E"/>
<path d="M34.0961 267C34.3599 266.848 34.6238 266.7 34.8877 266.549C36.8084 265.454 38.7334 264.363 40.654 263.268C40.667 263.26 40.6843 263.252 40.7016 263.239C40.7016 264.494 40.7016 265.745 40.7016 266.995C38.4998 267 36.2979 267 34.0961 267Z" fill="#01338E"/>
<path d="M45.369 267C45.369 265.749 45.369 264.499 45.369 263.248C45.3863 263.244 45.3992 263.256 45.4079 263.264C47.5838 264.503 49.764 265.741 51.9399 266.98C51.9528 266.988 51.9615 266.992 51.9745 267C49.7726 267 47.5708 267 45.369 267Z" fill="#01338E"/>
</g>
</g>
<ellipse cx="47.2964" cy="255.847" rx="1.9039" ry="1.9039" fill="#373D43"/>
<path d="M48.121 256.376H47.9741C47.9457 256.376 47.9173 256.403 47.9173 256.43V256.687H47.1923V256.015H47.6662C47.6946 256.015 47.723 255.992 47.723 255.96V255.852C47.723 255.825 47.6946 255.798 47.6662 255.798H47.1923V255.451C47.1923 255.284 47.3155 255.148 47.5335 255.148C47.6567 255.148 47.7657 255.202 47.8225 255.234C47.8462 255.252 47.8794 255.247 47.8983 255.225L47.9883 255.117C48.012 255.09 48.0073 255.053 47.9789 255.035C47.9031 254.986 47.7467 254.896 47.5335 254.896C47.1592 254.896 46.8891 255.13 46.8891 255.442V255.798H46.7565C46.7233 255.798 46.6996 255.825 46.6996 255.852V255.96C46.6996 255.992 46.7233 256.015 46.7565 256.015H46.8891V256.687H46.7185C46.6854 256.687 46.6617 256.714 46.6617 256.741V256.863C46.6617 256.895 46.6854 256.917 46.7185 256.917H48.121C48.1494 256.917 48.1779 256.895 48.1779 256.863V256.43C48.1779 256.403 48.1494 256.376 48.121 256.376Z" fill="white"/>
</g>
<mask id="mask2_2553_127361" style="mask-type:alpha" maskUnits="userSpaceOnUse" x="33" y="247" width="20" height="20">
<path fill-rule="evenodd" clip-rule="evenodd" d="M51.6214 253.056C51.0244 253.578 50.2429 253.894 49.3876 253.894C47.512 253.894 45.9916 252.374 45.9916 250.498C45.9916 249.682 46.2793 248.933 46.7588 248.348C45.5852 247.838 44.2899 247.555 42.9285 247.555C37.6183 247.555 33.3135 251.859 33.3135 257.17C33.3135 262.48 37.6183 266.785 42.9285 266.785C48.2387 266.785 52.5435 262.48 52.5435 257.17C52.5435 255.698 52.2127 254.303 51.6214 253.056Z" fill="#C4C4C4"/>
</mask>
<g mask="url(#mask2_2553_127361)">
<mask id="mask3_2553_127361" style="mask-type:alpha" maskUnits="userSpaceOnUse" x="33" y="247" width="20" height="20">
<ellipse cx="42.9285" cy="257.17" rx="9.615" ry="9.61501" fill="#C4C4C4"/>
</mask>
<g mask="url(#mask3_2553_127361)">
<path d="M60.5491 255.174C60.5491 256.501 60.5491 257.833 60.5491 259.16C60.5232 259.16 60.4973 259.154 60.4649 259.154C55.3993 259.154 50.3337 259.154 45.2681 259.154C45.1645 259.154 45.1775 259.141 45.1775 259.24C45.1775 261.837 45.1775 264.428 45.1775 267.026C45.1775 267.05 45.1839 267.075 45.1839 267.106C43.7847 267.106 42.3791 267.106 40.9799 267.106C40.9799 267.081 40.9864 267.057 40.9864 267.026C40.9864 264.428 40.9864 261.837 40.9864 259.24C40.9864 259.141 40.9993 259.154 40.8957 259.154C35.8301 259.154 30.7645 259.154 25.6989 259.154C25.673 259.154 25.6471 259.16 25.6147 259.16C25.6147 257.833 25.6147 256.501 25.6147 255.174C25.6406 255.174 25.6665 255.181 25.6989 255.181C30.7645 255.181 35.8301 255.181 40.8957 255.181C40.9993 255.181 40.9864 255.193 40.9864 255.095C40.9864 252.497 40.9864 249.906 40.9864 247.308C40.9864 247.284 40.9799 247.259 40.9799 247.229C42.3791 247.229 43.7847 247.229 45.1839 247.229C45.1839 247.253 45.1775 247.278 45.1775 247.308C45.1775 249.906 45.1775 252.497 45.1775 255.095C45.1775 255.193 45.1645 255.181 45.2681 255.181C50.3337 255.181 55.3993 255.181 60.4649 255.181C60.4973 255.181 60.5232 255.181 60.5491 255.174Z" fill="#DD2E39"/>
<path d="M40.9866 247.234C40.9866 247.259 40.9931 247.283 40.9931 247.314C40.9931 249.912 40.9931 252.503 40.9931 255.101C40.9931 255.199 41.0061 255.186 40.9024 255.186C35.8368 255.186 30.7712 255.186 25.7056 255.186C25.6797 255.186 25.6538 255.18 25.6214 255.18C25.6214 254.738 25.6214 254.302 25.6214 253.86C28.1348 253.86 30.6546 253.86 33.1874 253.86C33.1615 253.842 33.1485 253.836 33.1356 253.829C30.6546 252.417 28.1672 251.005 25.6862 249.592C25.6667 249.58 25.6538 249.562 25.6279 249.568C25.6214 248.806 25.6214 248.045 25.6214 247.29C25.6214 247.241 25.6279 247.234 25.6797 247.234C27.0206 247.234 28.3615 247.234 29.7024 247.234C29.7218 247.247 29.7412 247.259 29.7607 247.271C33.019 249.126 36.2773 250.974 39.5356 252.828C39.555 252.841 39.568 252.859 39.6004 252.853C39.6004 250.98 39.6004 249.107 39.6004 247.234C40.0603 247.234 40.5202 247.234 40.9866 247.234Z" fill="#FEFEFE"/>
<path d="M60.5493 255.174C60.5234 255.174 60.4974 255.181 60.4651 255.181C55.3994 255.181 50.3338 255.181 45.2682 255.181C45.1646 255.181 45.1775 255.193 45.1775 255.095C45.1775 252.497 45.1775 249.906 45.1775 247.308C45.1775 247.284 45.184 247.259 45.184 247.229C45.6504 247.229 46.1103 247.229 46.5767 247.229C46.5767 249.101 46.5767 250.974 46.5767 252.859C46.6091 252.841 46.635 252.829 46.6609 252.81C49.5889 251.146 52.5168 249.476 55.4513 247.812C55.7946 247.615 56.1314 247.425 56.4683 247.229C57.8092 247.229 59.1501 247.229 60.491 247.229C60.5363 247.229 60.5493 247.235 60.5493 247.284C60.5493 248.045 60.5493 248.801 60.5493 249.562C60.4521 249.593 60.3744 249.654 60.2837 249.703C57.8739 251.073 55.4642 252.442 53.0545 253.811C53.0351 253.824 53.0091 253.83 52.9962 253.854C55.516 253.854 58.0294 253.854 60.5493 253.854C60.5493 254.296 60.5493 254.738 60.5493 255.174Z" fill="#FEFEFE"/>
<path d="M25.6214 259.16C25.6473 259.16 25.6732 259.154 25.7056 259.154C30.7712 259.154 35.8368 259.154 40.9024 259.154C41.0061 259.154 40.9931 259.142 40.9931 259.24C40.9931 261.837 40.9931 264.429 40.9931 267.026C40.9931 267.051 40.9866 267.075 40.9866 267.106C40.5202 267.106 40.0603 267.106 39.5939 267.106C39.5939 265.233 39.5939 263.36 39.5939 261.481C39.5615 261.5 39.5421 261.512 39.5226 261.524C36.6465 263.164 33.7639 264.797 30.8878 266.437C30.4927 266.664 30.0975 266.885 29.7024 267.112C28.3615 267.112 27.0206 267.112 25.6797 267.112C25.6344 267.112 25.6214 267.106 25.6214 267.057C25.6214 266.301 25.6214 265.54 25.6214 264.785C25.6603 264.785 25.6797 264.76 25.7121 264.742C28.0311 263.422 30.3502 262.101 32.6757 260.781C32.8441 260.689 33.006 260.591 33.1745 260.499C33.1745 260.492 33.1745 260.492 33.1745 260.486C30.6611 260.486 28.1412 260.486 25.6279 260.486C25.6214 260.038 25.6214 259.602 25.6214 259.16Z" fill="#FEFEFE"/>
<path d="M45.1903 267.106C45.1903 267.081 45.1838 267.057 45.1838 267.026C45.1838 264.429 45.1838 261.837 45.1838 259.24C45.1838 259.142 45.1709 259.154 45.2745 259.154C50.3401 259.154 55.4057 259.154 60.4713 259.154C60.4972 259.154 60.5231 259.16 60.5555 259.16C60.5555 259.602 60.5555 260.038 60.5555 260.48C58.0421 260.48 55.5223 260.48 52.9895 260.48C53.0219 260.499 53.0413 260.511 53.0543 260.517C55.5352 261.929 58.0097 263.336 60.4907 264.748C60.5102 264.76 60.5231 264.779 60.549 264.772C60.549 265.534 60.549 266.289 60.549 267.051C60.549 267.094 60.5425 267.106 60.4907 267.106C59.1498 267.106 57.8089 267.106 56.468 267.106C56.4486 267.094 56.4357 267.081 56.4162 267.075C53.1579 265.221 49.8931 263.366 46.6348 261.512C46.6154 261.5 46.6024 261.481 46.5765 261.487C46.5765 263.36 46.5765 265.233 46.5765 267.106C46.1166 267.106 45.6502 267.106 45.1903 267.106Z" fill="#FEFEFE"/>
<path d="M39.5939 247.234C39.5939 249.107 39.5939 250.98 39.5939 252.853C39.568 252.859 39.5485 252.841 39.5291 252.828C36.2773 250.974 33.0189 249.126 29.7606 247.271C29.7412 247.259 29.7218 247.247 29.7023 247.234C32.9995 247.234 36.2967 247.234 39.5939 247.234Z" fill="#01338E"/>
<path d="M56.4745 247.234C56.1376 247.431 55.7943 247.621 55.4575 247.818C52.5296 249.482 49.6016 251.152 46.6672 252.816C46.6413 252.828 46.6154 252.847 46.583 252.865C46.583 250.986 46.583 249.107 46.583 247.234C49.8802 247.234 53.1773 247.234 56.4745 247.234Z" fill="#01338E"/>
<path d="M29.7023 267.106C30.0975 266.878 30.4926 266.657 30.8878 266.43C33.7639 264.791 36.6465 263.157 39.5226 261.518C39.5421 261.505 39.568 261.493 39.5939 261.475C39.5939 263.354 39.5939 265.227 39.5939 267.099C36.2967 267.106 32.9995 267.106 29.7023 267.106Z" fill="#01338E"/>
<path d="M46.583 267.106C46.583 265.233 46.583 263.36 46.583 261.488C46.6089 261.481 46.6284 261.5 46.6413 261.512C49.8996 263.367 53.1644 265.221 56.4227 267.076C56.4421 267.088 56.455 267.094 56.4745 267.106C53.1773 267.106 49.8802 267.106 46.583 267.106Z" fill="#01338E"/>
</g>
</g>
<ellipse cx="49.4692" cy="250.406" rx="2.851" ry="2.851" fill="#373D43"/>
<path d="M50.7041 251.197H50.4842C50.4416 251.197 50.3991 251.237 50.3991 251.278V251.663H49.3135V250.656H50.023C50.0656 250.656 50.1082 250.622 50.1082 250.575V250.413C50.1082 250.372 50.0656 250.332 50.023 250.332H49.3135V249.812C49.3135 249.562 49.498 249.359 49.8244 249.359C50.0088 249.359 50.172 249.44 50.2572 249.487C50.2926 249.514 50.3423 249.508 50.3707 249.474L50.5055 249.312C50.5409 249.271 50.5339 249.217 50.4913 249.19C50.3778 249.116 50.1436 248.98 49.8244 248.98C49.2639 248.98 48.8594 249.332 48.8594 249.798V250.332H48.6608C48.6111 250.332 48.5756 250.372 48.5756 250.413V250.575C48.5756 250.622 48.6111 250.656 48.6608 250.656H48.8594V251.663H48.604C48.5543 251.663 48.5189 251.704 48.5189 251.744V251.927C48.5189 251.974 48.5543 252.008 48.604 252.008H50.7041C50.7467 252.008 50.7893 251.974 50.7893 251.927V251.278C50.7893 251.237 50.7467 251.197 50.7041 251.197Z" fill="white"/>
<defs>
<filter id="filter0_f_2553_127361" x="-216.492" y="0.943359" width="518.842" height="518.842" filterUnits="userSpaceOnUse" color-interpolation-filters="sRGB">
<feFlood flood-opacity="0" result="BackgroundImageFix"/>
<feBlend mode="normal" in="SourceGraphic" in2="BackgroundImageFix" result="shape"/>
<feGaussianBlur stdDeviation="126.5" result="effect1_foregroundBlur_2553_127361"/>
</filter>
</defs>
</svg>
