<svg width="29" height="29" viewBox="0 0 29 29" fill="none" xmlns="http://www.w3.org/2000/svg">
<path d="M26.1631 5.69922V9.78255C26.1631 10.2656 25.7711 10.6576 25.2881 10.6576C24.8051 10.6576 24.4131 10.2656 24.4131 9.78255V5.69922C24.4131 5.01205 24.2253 4.82422 23.5381 4.82422H19.4548C18.9718 4.82422 18.5798 4.43222 18.5798 3.94922C18.5798 3.46622 18.9718 3.07422 19.4548 3.07422H23.5381C25.1819 3.07422 26.1631 4.05539 26.1631 5.69922ZM4.28809 10.6576C4.77109 10.6576 5.16309 10.2656 5.16309 9.78255V5.69922C5.16309 5.01205 5.35092 4.82422 6.03809 4.82422H10.1214C10.6044 4.82422 10.9964 4.43222 10.9964 3.94922C10.9964 3.46622 10.6044 3.07422 10.1214 3.07422H6.03809C4.39425 3.07422 3.41309 4.05539 3.41309 5.69922V9.78255C3.41309 10.2656 3.80509 10.6576 4.28809 10.6576ZM10.1214 24.0742H6.03809C5.35092 24.0742 5.16309 23.8864 5.16309 23.1992V19.1159C5.16309 18.6329 4.77109 18.2409 4.28809 18.2409C3.80509 18.2409 3.41309 18.6329 3.41309 19.1159V23.1992C3.41309 24.8431 4.39425 25.8242 6.03809 25.8242H10.1214C10.6044 25.8242 10.9964 25.4322 10.9964 24.9492C10.9964 24.4662 10.6044 24.0742 10.1214 24.0742ZM25.2881 18.2409C24.8051 18.2409 24.4131 18.6329 24.4131 19.1159V23.1992C24.4131 23.8864 24.2253 24.0742 23.5381 24.0742H19.4548C18.9718 24.0742 18.5798 24.4662 18.5798 24.9492C18.5798 25.4322 18.9718 25.8242 19.4548 25.8242H23.5381C25.1819 25.8242 26.1631 24.8431 26.1631 23.1992V19.1159C26.1631 18.6329 25.7711 18.2409 25.2881 18.2409ZM8.07975 10.8092V10.9492C8.07975 11.4322 8.47175 11.8242 8.95475 11.8242C9.43775 11.8242 9.82975 11.4322 9.82975 10.9492V10.8092C9.82975 9.82339 10.1623 9.49089 11.1481 9.49089H18.4281C19.4139 9.49089 19.7464 9.82339 19.7464 10.8092V10.9492C19.7464 11.4322 20.1384 11.8242 20.6214 11.8242C21.1044 11.8242 21.4964 11.4322 21.4964 10.9492V10.8092C21.4964 8.85972 20.3776 7.74089 18.4281 7.74089H11.1481C9.19859 7.74089 8.07975 8.85856 8.07975 10.8092ZM18.4281 21.1576H11.1481C9.19859 21.1576 8.07975 20.0387 8.07975 18.0892V15.3242H6.62142C6.13842 15.3242 5.74642 14.9322 5.74642 14.4492C5.74642 13.9662 6.13842 13.5742 6.62142 13.5742H22.9548C23.4378 13.5742 23.8298 13.9662 23.8298 14.4492C23.8298 14.9322 23.4378 15.3242 22.9548 15.3242H21.4964V18.0892C21.4964 20.0387 20.3776 21.1576 18.4281 21.1576ZM19.7464 18.0892V15.3242H9.82975V18.0892C9.82975 19.075 10.1623 19.4076 11.1481 19.4076H18.4281C19.4139 19.4076 19.7464 19.075 19.7464 18.0892Z" fill="#061237"/>
</svg>
