<svg width="24" height="25" viewBox="0 0 24 25" fill="none" xmlns="http://www.w3.org/2000/svg">
<path d="M11.9474 2.74609C9.75317 3.8344 8.01142 4.70525 3.11354 5.68482C3.11354 6.7986 3.11354 10.2907 3.11354 11.4535C3.11354 17.9843 8.6648 21.2493 11.9297 22.3376C15.1947 21.2493 20.7459 17.9843 20.7459 11.4535C20.7459 10.2535 20.7459 6.85444 20.7459 5.68482C15.848 4.70525 14.1064 3.8344 11.9474 2.74609ZM15.3994 11.1019L11.4811 15.0202C11.3381 15.1632 11.1499 15.2357 10.9619 15.2357C10.7738 15.2357 10.5857 15.1642 10.4427 15.0202L8.48351 13.0611C8.1965 12.774 8.1965 12.3087 8.48351 12.0217C8.77053 11.7347 9.23586 11.7347 9.52288 12.0217L10.9628 13.4616L14.3619 10.0625C14.6489 9.77553 15.1143 9.77553 15.4013 10.0625C15.6883 10.3496 15.6864 10.8149 15.3994 11.1019Z" fill="#061237"/>
</svg>
