<svg width="56" height="55" viewBox="0 0 56 55" fill="none" xmlns="http://www.w3.org/2000/svg">
<g clip-path="url(#clip0_1498_96115)">
<path d="M41.6791 4.12936L51.6317 14.0819C53.9457 18.0813 55.2709 22.7244 55.2709 27.6772L51.6317 41.2726C49.2446 45.3981 45.8049 48.838 41.6791 51.2252L17.1432 27.6772L28.0837 0.490234C33.0366 0.490234 37.6797 1.81539 41.6791 4.12936Z" fill="#D2D2D2"/>
<path d="M41.673 4.12891C45.7986 6.51605 49.2385 9.95573 51.6256 14.0815L28.0776 27.6767L41.673 4.12891Z" fill="#898989"/>
<path d="M55.2648 27.6758C55.2648 32.6286 53.9396 37.2717 51.6256 41.2712L28.0776 27.6758H55.2648Z" fill="#898989"/>
<path d="M41.6742 51.2236C37.6748 53.5376 33.0317 54.8628 28.0788 54.8628L23.7027 41.2693L28.0788 27.6758L41.6742 51.2236Z" fill="#898989"/>
<path d="M14.4841 4.12936L4.53144 14.0819C2.21756 18.0813 0.892395 22.7244 0.892395 27.6772L4.53154 41.2726C6.9187 45.3981 10.3584 48.838 14.4842 51.2252L25.6582 43.8274L28.0795 27.6772V0.490234C23.1267 0.490234 18.4835 1.81539 14.4841 4.12936Z" fill="#767575"/>
<path d="M14.4856 4.12891C10.3601 6.51605 6.92019 9.95573 4.53304 14.0815L28.0811 27.6767L14.4856 4.12891Z" fill="#D2D2D2"/>
<path d="M0.89576 27.6768C0.89576 32.6296 2.22092 37.2727 4.53491 41.2722L28.0829 27.6768H0.89576Z" fill="#D2D2D2"/>
<path d="M14.488 51.2246C18.4875 53.5386 23.1306 54.8637 28.0835 54.8637V27.6768L14.488 51.2246Z" fill="#D2D2D2"/>
<path d="M28.0819 4.86523L20.4235 27.6761L28.0819 50.4869C40.68 50.4869 50.8929 40.2741 50.8929 27.6761C50.8929 15.078 40.68 4.86523 28.0819 4.86523Z" fill="#767575"/>
<path d="M5.26993 27.6761C5.26993 40.274 15.4827 50.4869 28.0809 50.4869V4.86523C15.4828 4.86523 5.26993 15.0781 5.26993 27.6761Z" fill="#C1C1C1"/>
<path d="M28.0811 8.14746V47.2048C38.8665 47.2048 47.6099 38.4616 47.6099 27.6762C47.6099 16.8908 38.8665 8.14746 28.0811 8.14746Z" fill="#A7A7A7"/>
<path d="M44.3269 27.6761C44.3269 16.8907 37.053 8.14746 28.0802 8.14746C17.2948 8.14746 8.55148 16.8907 8.55148 27.6761C8.55148 38.4615 17.2948 47.2047 28.0802 47.2047C37.053 47.2047 44.3269 38.4615 44.3269 27.6761Z" fill="white"/>
<path d="M42.1736 22.6485L32.4365 21.2335L28.0819 12.4102L24.7998 27.677L28.0819 34.6356L36.7911 39.2143L35.1278 29.5164L42.1736 22.6485Z" fill="#D2D2D2"/>
<path d="M23.7287 21.2335L13.9915 22.6485L21.0374 29.5164L19.3741 39.2143L28.0833 34.6356V12.4102L23.7287 21.2335Z" fill="#767575"/>
</g>
<defs>
<clipPath id="clip0_1498_96115">
<rect x="0.892395" y="0.490234" width="54.3743" height="54.3739" fill="white"/>
</clipPath>
</defs>
</svg>
