<svg width="31" height="31" viewBox="0 0 31 31" fill="none" xmlns="http://www.w3.org/2000/svg">
<path d="M25.164 11.4136C24.7842 12.6066 23.81 13.5749 22.6144 13.9484C20.6806 14.553 18.8416 13.7235 17.9222 12.2632C17.8498 12.1482 17.8548 12.0034 17.921 11.8847C18.4644 10.9153 18.773 9.79594 18.773 8.60043C18.773 8.18568 18.7367 7.78091 18.6643 7.3849C18.6405 7.25498 18.6805 7.12006 18.7817 7.03386C19.475 6.44547 20.3721 6.10197 21.334 6.10197C23.9773 6.10197 26.0384 8.66408 25.164 11.4136ZM23.2689 15.821H20.7955C20.5831 15.821 20.4207 15.9833 20.4207 16.1957C20.4207 16.2956 20.4583 16.3957 20.5332 16.4581C20.5457 16.4706 20.5581 16.483 20.5706 16.4955C22.3195 18.1819 23.1316 20.593 23.1316 22.9916C23.1316 23.4538 23.1066 23.9034 23.0317 24.3157C23.0192 24.3706 23.0154 24.417 23.0154 24.4669C23.0154 24.6793 23.1815 24.8404 23.3813 24.8404H25.2053C27.4914 24.8404 28.7531 23.5912 28.7531 21.3176C28.7531 18.7817 27.3165 15.821 23.2689 15.821ZM11.901 3.60352C9.14021 3.60352 6.90409 5.83963 6.90409 8.60043C6.90409 11.3612 9.14021 13.5973 11.901 13.5973C14.6493 13.5973 16.8979 11.3612 16.8979 8.60043C16.8979 5.83963 14.6493 3.60352 11.901 3.60352ZM14.387 16.0958H9.39004C4.31818 16.0958 2.51929 19.806 2.51929 22.9916C2.51929 25.8398 4.03085 27.3389 6.89159 27.3389H16.8854C19.7461 27.3389 21.2577 25.8398 21.2577 22.9916C21.2577 19.806 19.4588 16.0958 14.387 16.0958Z" fill="#718096"/>
</svg>
