<svg width="21" height="22" viewBox="0 0 21 22" fill="none" xmlns="http://www.w3.org/2000/svg">
<path d="M11.5774 12.632C11.5774 14.196 12.8531 15.4717 14.4172 15.4717H18.3492V16.127C18.3492 17.8746 17.4754 18.7484 15.7278 18.7484H5.24261C3.49508 18.7484 2.62131 17.8746 2.62131 16.127V4.76805C2.62131 5.72919 3.4077 6.51558 4.36885 6.51558H15.7278C17.4754 6.51558 18.3492 7.38935 18.3492 9.13689V9.79222H14.4172C12.8531 9.79222 11.5774 11.0679 11.5774 12.632ZM14.4172 11.1029C13.5784 11.1029 12.8881 11.7931 12.8881 12.632C12.8881 13.4708 13.5784 14.1611 14.4172 14.1611H18.3492V11.1029H14.4172ZM14.8716 13.5057C14.391 13.5057 13.9891 13.1125 13.9891 12.632C13.9891 12.1514 14.3822 11.7582 14.8628 11.7582H14.8716C15.3521 11.7582 15.7453 12.1514 15.7453 12.632C15.7453 13.1125 15.3521 13.5057 14.8716 13.5057ZM13.1065 3.02051H5.02417C4.42127 3.02051 3.93196 3.50982 3.93196 4.11272C3.93196 4.71562 4.42127 5.20493 5.02417 5.20493H15.7016C15.5705 3.74574 14.7055 3.02051 13.1065 3.02051Z" fill="white"/>
</svg>
