<svg width="21" height="22" viewBox="0 0 21 22" fill="none" xmlns="http://www.w3.org/2000/svg">
<path d="M20.1141 8.26304C20.1141 9.22768 19.3312 10.0106 18.3666 10.0106C18.1202 10.0106 17.886 9.95812 17.6728 9.86637L14.7273 12.8119C14.82 13.0251 14.8724 13.2584 14.8724 13.5057C14.8724 14.4703 14.0895 15.2532 13.1249 15.2532C12.1602 15.2532 11.373 14.4703 11.373 13.5057C11.373 13.2671 11.421 13.0399 11.5075 12.832L8.55155 9.87597C8.34535 9.9616 8.11903 10.0097 7.88224 10.0097C7.63584 10.0097 7.40168 9.95726 7.18848 9.86552L4.243 12.8111C4.33562 13.0243 4.38805 13.2575 4.38805 13.5048C4.38805 14.4694 3.60515 15.2523 2.64051 15.2523C1.67587 15.2523 0.888596 14.4694 0.888596 13.5048C0.888596 12.5402 1.66625 11.7573 2.63176 11.7573H2.64051C2.87817 11.7573 3.1036 11.8054 3.30981 11.891L6.26664 8.93415C6.18014 8.72707 6.13121 8.49985 6.13121 8.26219C6.13121 7.29755 6.90886 6.51465 7.87438 6.51465H7.88312C8.84776 6.51465 9.63066 7.29755 9.63066 8.26219C9.63066 8.50859 9.57823 8.74271 9.48561 8.95591L12.4285 11.8987C12.639 11.8078 12.8715 11.7573 13.1161 11.7573H13.1249C13.3625 11.7573 13.588 11.8054 13.7942 11.891L16.751 8.93415C16.6645 8.72707 16.6156 8.49985 16.6156 8.26219C16.6156 7.29755 17.3932 6.51465 18.3587 6.51465H18.3675C19.3321 6.51552 20.1141 7.2984 20.1141 8.26304Z" fill="#3350DB"/>
</svg>
